<svg width="16" height="16" viewBox="0 0 16 16" fill="none" xmlns="http://www.w3.org/2000/svg">
<path d="M2.6665 13.3333L14.3999 1.60001" stroke="#2A89CE" stroke-width="2" stroke-linecap="square" stroke-linejoin="round"/>
<mask id="path-2-inside-1_6_149" fill="white">
<path d="M0 0H16V16"/>
</mask>
<path d="M0 -2C-1.10457 -2 -2 -1.10457 -2 0C-2 1.10457 -1.10457 2 0 2V-2ZM16 0H18C18 -1.10457 17.1046 -2 16 -2V0ZM14 16C14 17.1046 14.8954 18 16 18C17.1046 18 18 17.1046 18 16H14ZM0 2H16V-2H0V2ZM14 0V16H18V0H14Z" fill="#2A89CE" mask="url(#path-2-inside-1_6_149)"/>
</svg>
